<?xml version="1.0" encoding="UTF-8"?><svg id="Layer_2" xmlns="http://www.w3.org/2000/svg" viewBox="0 0 135 135"><defs><style>.cls-1{fill:#231f20;}.cls-1,.cls-2{stroke-width:0px;}.cls-2{fill:#fff;}</style></defs><g id="layer1"><rect class="cls-2" width="135" height="135"/><rect class="cls-1" x="12" y="12" width="3" height="3"/><rect class="cls-1" x="15" y="12" width="3" height="3"/><rect class="cls-1" x="18" y="12" width="3" height="3"/><rect class="cls-1" x="21" y="12" width="3" height="3"/><rect class="cls-1" x="24" y="12" width="3" height="3"/><rect class="cls-1" x="27" y="12" width="3" height="3"/><rect class="cls-1" x="30" y="12" width="3" height="3"/><rect class="cls-1" x="36" y="12" width="3" height="3"/><rect class="cls-1" x="39" y="12" width="3" height="3"/><rect class="cls-1" x="42" y="12" width="3" height="3"/><rect class="cls-1" x="48" y="12" width="3" height="3"/><rect class="cls-1" x="51" y="12" width="3" height="3"/><rect class="cls-1" x="54" y="12" width="3" height="3"/><rect class="cls-1" x="60" y="12" width="3" height="3"/><rect class="cls-1" x="66" y="12" width="3" height="3"/><rect class="cls-1" x="72" y="12" width="3" height="3"/><rect class="cls-1" x="75" y="12" width="3" height="3"/><rect class="cls-1" x="87" y="12" width="3" height="3"/><rect class="cls-1" x="90" y="12" width="3" height="3"/><rect class="cls-1" x="93" y="12" width="3" height="3"/><rect class="cls-1" x="96" y="12" width="3" height="3"/><rect class="cls-1" x="102" y="12" width="3" height="3"/><rect class="cls-1" x="105" y="12" width="3" height="3"/><rect class="cls-1" x="108" y="12" width="3" height="3"/><rect class="cls-1" x="111" y="12" width="3" height="3"/><rect class="cls-1" x="114" y="12" width="3" height="3"/><rect class="cls-1" x="117" y="12" width="3" height="3"/><rect class="cls-1" x="120" y="12" width="3" height="3"/><rect class="cls-1" x="12" y="15" width="3" height="3"/><rect class="cls-1" x="30" y="15" width="3" height="3"/><rect class="cls-1" x="36" y="15" width="3" height="3"/><rect class="cls-1" x="39" y="15" width="3" height="3"/><rect class="cls-1" x="45" y="15" width="3" height="3"/><rect class="cls-1" x="48" y="15" width="3" height="3"/><rect class="cls-1" x="51" y="15" width="3" height="3"/><rect class="cls-1" x="60" y="15" width="3" height="3"/><rect class="cls-1" x="66" y="15" width="3" height="3"/><rect class="cls-1" x="75" y="15" width="3" height="3"/><rect class="cls-1" x="78" y="15" width="3" height="3"/><rect class="cls-1" x="81" y="15" width="3" height="3"/><rect class="cls-1" x="84" y="15" width="3" height="3"/><rect class="cls-1" x="87" y="15" width="3" height="3"/><rect class="cls-1" x="90" y="15" width="3" height="3"/><rect class="cls-1" x="93" y="15" width="3" height="3"/><rect class="cls-1" x="102" y="15" width="3" height="3"/><rect class="cls-1" x="120" y="15" width="3" height="3"/><rect class="cls-1" x="12" y="18" width="3" height="3"/><rect class="cls-1" x="18" y="18" width="3" height="3"/><rect class="cls-1" x="21" y="18" width="3" height="3"/><rect class="cls-1" x="24" y="18" width="3" height="3"/><rect class="cls-1" x="30" y="18" width="3" height="3"/><rect class="cls-1" x="39" y="18" width="3" height="3"/><rect class="cls-1" x="42" y="18" width="3" height="3"/><rect class="cls-1" x="54" y="18" width="3" height="3"/><rect class="cls-1" x="60" y="18" width="3" height="3"/><rect class="cls-1" x="69" y="18" width="3" height="3"/><rect class="cls-1" x="72" y="18" width="3" height="3"/><rect class="cls-1" x="75" y="18" width="3" height="3"/><rect class="cls-1" x="78" y="18" width="3" height="3"/><rect class="cls-1" x="81" y="18" width="3" height="3"/><rect class="cls-1" x="90" y="18" width="3" height="3"/><rect class="cls-1" x="102" y="18" width="3" height="3"/><rect class="cls-1" x="108" y="18" width="3" height="3"/><rect class="cls-1" x="111" y="18" width="3" height="3"/><rect class="cls-1" x="114" y="18" width="3" height="3"/><rect class="cls-1" x="120" y="18" width="3" height="3"/><rect class="cls-1" x="12" y="21" width="3" height="3"/><rect class="cls-1" x="18" y="21" width="3" height="3"/><rect class="cls-1" x="21" y="21" width="3" height="3"/><rect class="cls-1" x="24" y="21" width="3" height="3"/><rect class="cls-1" x="30" y="21" width="3" height="3"/><rect class="cls-1" x="36" y="21" width="3" height="3"/><rect class="cls-1" x="45" y="21" width="3" height="3"/><rect class="cls-1" x="51" y="21" width="3" height="3"/><rect class="cls-1" x="75" y="21" width="3" height="3"/><rect class="cls-1" x="84" y="21" width="3" height="3"/><rect class="cls-1" x="87" y="21" width="3" height="3"/><rect class="cls-1" x="90" y="21" width="3" height="3"/><rect class="cls-1" x="102" y="21" width="3" height="3"/><rect class="cls-1" x="108" y="21" width="3" height="3"/><rect class="cls-1" x="111" y="21" width="3" height="3"/><rect class="cls-1" x="114" y="21" width="3" height="3"/><rect class="cls-1" x="120" y="21" width="3" height="3"/><rect class="cls-1" x="12" y="24" width="3" height="3"/><rect class="cls-1" x="18" y="24" width="3" height="3"/><rect class="cls-1" x="21" y="24" width="3" height="3"/><rect class="cls-1" x="24" y="24" width="3" height="3"/><rect class="cls-1" x="30" y="24" width="3" height="3"/><rect class="cls-1" x="36" y="24" width="3" height="3"/><rect class="cls-1" x="45" y="24" width="3" height="3"/><rect class="cls-1" x="48" y="24" width="3" height="3"/><rect class="cls-1" x="51" y="24" width="3" height="3"/><rect class="cls-1" x="60" y="24" width="3" height="3"/><rect class="cls-1" x="66" y="24" width="3" height="3"/><rect class="cls-1" x="72" y="24" width="3" height="3"/><rect class="cls-1" x="78" y="24" width="3" height="3"/><rect class="cls-1" x="81" y="24" width="3" height="3"/><rect class="cls-1" x="84" y="24" width="3" height="3"/><rect class="cls-1" x="93" y="24" width="3" height="3"/><rect class="cls-1" x="102" y="24" width="3" height="3"/><rect class="cls-1" x="108" y="24" width="3" height="3"/><rect class="cls-1" x="111" y="24" width="3" height="3"/><rect class="cls-1" x="114" y="24" width="3" height="3"/><rect class="cls-1" x="120" y="24" width="3" height="3"/><rect class="cls-1" x="12" y="27" width="3" height="3"/><rect class="cls-1" x="30" y="27" width="3" height="3"/><rect class="cls-1" x="36" y="27" width="3" height="3"/><rect class="cls-1" x="39" y="27" width="3" height="3"/><rect class="cls-1" x="45" y="27" width="3" height="3"/><rect class="cls-1" x="54" y="27" width="3" height="3"/><rect class="cls-1" x="57" y="27" width="3" height="3"/><rect class="cls-1" x="60" y="27" width="3" height="3"/><rect class="cls-1" x="66" y="27" width="3" height="3"/><rect class="cls-1" x="72" y="27" width="3" height="3"/><rect class="cls-1" x="78" y="27" width="3" height="3"/><rect class="cls-1" x="81" y="27" width="3" height="3"/><rect class="cls-1" x="84" y="27" width="3" height="3"/><rect class="cls-1" x="93" y="27" width="3" height="3"/><rect class="cls-1" x="96" y="27" width="3" height="3"/><rect class="cls-1" x="102" y="27" width="3" height="3"/><rect class="cls-1" x="120" y="27" width="3" height="3"/><rect class="cls-1" x="12" y="30" width="3" height="3"/><rect class="cls-1" x="15" y="30" width="3" height="3"/><rect class="cls-1" x="18" y="30" width="3" height="3"/><rect class="cls-1" x="21" y="30" width="3" height="3"/><rect class="cls-1" x="24" y="30" width="3" height="3"/><rect class="cls-1" x="27" y="30" width="3" height="3"/><rect class="cls-1" x="30" y="30" width="3" height="3"/><rect class="cls-1" x="36" y="30" width="3" height="3"/><rect class="cls-1" x="42" y="30" width="3" height="3"/><rect class="cls-1" x="48" y="30" width="3" height="3"/><rect class="cls-1" x="54" y="30" width="3" height="3"/><rect class="cls-1" x="60" y="30" width="3" height="3"/><rect class="cls-1" x="66" y="30" width="3" height="3"/><rect class="cls-1" x="72" y="30" width="3" height="3"/><rect class="cls-1" x="78" y="30" width="3" height="3"/><rect class="cls-1" x="84" y="30" width="3" height="3"/><rect class="cls-1" x="90" y="30" width="3" height="3"/><rect class="cls-1" x="96" y="30" width="3" height="3"/><rect class="cls-1" x="102" y="30" width="3" height="3"/><rect class="cls-1" x="105" y="30" width="3" height="3"/><rect class="cls-1" x="108" y="30" width="3" height="3"/><rect class="cls-1" x="111" y="30" width="3" height="3"/><rect class="cls-1" x="114" y="30" width="3" height="3"/><rect class="cls-1" x="117" y="30" width="3" height="3"/><rect class="cls-1" x="120" y="30" width="3" height="3"/><rect class="cls-1" x="39" y="33" width="3" height="3"/><rect class="cls-1" x="42" y="33" width="3" height="3"/><rect class="cls-1" x="45" y="33" width="3" height="3"/><rect class="cls-1" x="48" y="33" width="3" height="3"/><rect class="cls-1" x="51" y="33" width="3" height="3"/><rect class="cls-1" x="57" y="33" width="3" height="3"/><rect class="cls-1" x="63" y="33" width="3" height="3"/><rect class="cls-1" x="81" y="33" width="3" height="3"/><rect class="cls-1" x="87" y="33" width="3" height="3"/><rect class="cls-1" x="21" y="36" width="3" height="3"/><rect class="cls-1" x="30" y="36" width="3" height="3"/><rect class="cls-1" x="39" y="36" width="3" height="3"/><rect class="cls-1" x="45" y="36" width="3" height="3"/><rect class="cls-1" x="54" y="36" width="3" height="3"/><rect class="cls-1" x="57" y="36" width="3" height="3"/><rect class="cls-1" x="60" y="36" width="3" height="3"/><rect class="cls-1" x="63" y="36" width="3" height="3"/><rect class="cls-1" x="66" y="36" width="3" height="3"/><rect class="cls-1" x="84" y="36" width="3" height="3"/><rect class="cls-1" x="90" y="36" width="3" height="3"/><rect class="cls-1" x="93" y="36" width="3" height="3"/><rect class="cls-1" x="96" y="36" width="3" height="3"/><rect class="cls-1" x="105" y="36" width="3" height="3"/><rect class="cls-1" x="108" y="36" width="3" height="3"/><rect class="cls-1" x="111" y="36" width="3" height="3"/><rect class="cls-1" x="117" y="36" width="3" height="3"/><rect class="cls-1" x="120" y="36" width="3" height="3"/><rect class="cls-1" x="12" y="39" width="3" height="3"/><rect class="cls-1" x="18" y="39" width="3" height="3"/><rect class="cls-1" x="21" y="39" width="3" height="3"/><rect class="cls-1" x="24" y="39" width="3" height="3"/><rect class="cls-1" x="27" y="39" width="3" height="3"/><rect class="cls-1" x="36" y="39" width="3" height="3"/><rect class="cls-1" x="48" y="39" width="3" height="3"/><rect class="cls-1" x="54" y="39" width="3" height="3"/><rect class="cls-1" x="69" y="39" width="3" height="3"/><rect class="cls-1" x="72" y="39" width="3" height="3"/><rect class="cls-1" x="75" y="39" width="3" height="3"/><rect class="cls-1" x="81" y="39" width="3" height="3"/><rect class="cls-1" x="93" y="39" width="3" height="3"/><rect class="cls-1" x="99" y="39" width="3" height="3"/><rect class="cls-1" x="102" y="39" width="3" height="3"/><rect class="cls-1" x="117" y="39" width="3" height="3"/><rect class="cls-1" x="120" y="39" width="3" height="3"/><rect class="cls-1" x="15" y="42" width="3" height="3"/><rect class="cls-1" x="24" y="42" width="3" height="3"/><rect class="cls-1" x="30" y="42" width="3" height="3"/><rect class="cls-1" x="39" y="42" width="3" height="3"/><rect class="cls-1" x="48" y="42" width="3" height="3"/><rect class="cls-1" x="51" y="42" width="3" height="3"/><rect class="cls-1" x="57" y="42" width="3" height="3"/><rect class="cls-1" x="72" y="42" width="3" height="3"/><rect class="cls-1" x="78" y="42" width="3" height="3"/><rect class="cls-1" x="81" y="42" width="3" height="3"/><rect class="cls-1" x="84" y="42" width="3" height="3"/><rect class="cls-1" x="96" y="42" width="3" height="3"/><rect class="cls-1" x="102" y="42" width="3" height="3"/><rect class="cls-1" x="111" y="42" width="3" height="3"/><rect class="cls-1" x="117" y="42" width="3" height="3"/><rect class="cls-1" x="120" y="42" width="3" height="3"/><rect class="cls-1" x="12" y="45" width="3" height="3"/><rect class="cls-1" x="18" y="45" width="3" height="3"/><rect class="cls-1" x="33" y="45" width="3" height="3"/><rect class="cls-1" x="51" y="45" width="3" height="3"/><rect class="cls-1" x="66" y="45" width="3" height="3"/><rect class="cls-1" x="69" y="45" width="3" height="3"/><rect class="cls-1" x="78" y="45" width="3" height="3"/><rect class="cls-1" x="84" y="45" width="3" height="3"/><rect class="cls-1" x="87" y="45" width="3" height="3"/><rect class="cls-1" x="93" y="45" width="3" height="3"/><rect class="cls-1" x="96" y="45" width="3" height="3"/><rect class="cls-1" x="105" y="45" width="3" height="3"/><rect class="cls-1" x="108" y="45" width="3" height="3"/><rect class="cls-1" x="120" y="45" width="3" height="3"/><rect class="cls-1" x="21" y="48" width="3" height="3"/><rect class="cls-1" x="24" y="48" width="3" height="3"/><rect class="cls-1" x="27" y="48" width="3" height="3"/><rect class="cls-1" x="30" y="48" width="3" height="3"/><rect class="cls-1" x="33" y="48" width="3" height="3"/><rect class="cls-1" x="39" y="48" width="3" height="3"/><rect class="cls-1" x="45" y="48" width="3" height="3"/><rect class="cls-1" x="48" y="48" width="3" height="3"/><rect class="cls-1" x="60" y="48" width="3" height="3"/><rect class="cls-1" x="69" y="48" width="3" height="3"/><rect class="cls-1" x="72" y="48" width="3" height="3"/><rect class="cls-1" x="75" y="48" width="3" height="3"/><rect class="cls-1" x="81" y="48" width="3" height="3"/><rect class="cls-1" x="84" y="48" width="3" height="3"/><rect class="cls-1" x="87" y="48" width="3" height="3"/><rect class="cls-1" x="96" y="48" width="3" height="3"/><rect class="cls-1" x="99" y="48" width="3" height="3"/><rect class="cls-1" x="102" y="48" width="3" height="3"/><rect class="cls-1" x="105" y="48" width="3" height="3"/><rect class="cls-1" x="120" y="48" width="3" height="3"/><rect class="cls-1" x="12" y="51" width="3" height="3"/><rect class="cls-1" x="18" y="51" width="3" height="3"/><rect class="cls-1" x="21" y="51" width="3" height="3"/><rect class="cls-1" x="24" y="51" width="3" height="3"/><rect class="cls-1" x="27" y="51" width="3" height="3"/><rect class="cls-1" x="36" y="51" width="3" height="3"/><rect class="cls-1" x="48" y="51" width="3" height="3"/><rect class="cls-1" x="51" y="51" width="3" height="3"/><rect class="cls-1" x="57" y="51" width="3" height="3"/><rect class="cls-1" x="60" y="51" width="3" height="3"/><rect class="cls-1" x="66" y="51" width="3" height="3"/><rect class="cls-1" x="75" y="51" width="3" height="3"/><rect class="cls-1" x="81" y="51" width="3" height="3"/><rect class="cls-1" x="87" y="51" width="3" height="3"/><rect class="cls-1" x="96" y="51" width="3" height="3"/><rect class="cls-1" x="102" y="51" width="3" height="3"/><rect class="cls-1" x="105" y="51" width="3" height="3"/><rect class="cls-1" x="111" y="51" width="3" height="3"/><rect class="cls-1" x="117" y="51" width="3" height="3"/><rect class="cls-1" x="120" y="51" width="3" height="3"/><rect class="cls-1" x="12" y="54" width="3" height="3"/><rect class="cls-1" x="15" y="54" width="3" height="3"/><rect class="cls-1" x="18" y="54" width="3" height="3"/><rect class="cls-1" x="21" y="54" width="3" height="3"/><rect class="cls-1" x="27" y="54" width="3" height="3"/><rect class="cls-1" x="30" y="54" width="3" height="3"/><rect class="cls-1" x="33" y="54" width="3" height="3"/><rect class="cls-1" x="36" y="54" width="3" height="3"/><rect class="cls-1" x="48" y="54" width="3" height="3"/><rect class="cls-1" x="54" y="54" width="3" height="3"/><rect class="cls-1" x="57" y="54" width="3" height="3"/><rect class="cls-1" x="63" y="54" width="3" height="3"/><rect class="cls-1" x="69" y="54" width="3" height="3"/><rect class="cls-1" x="72" y="54" width="3" height="3"/><rect class="cls-1" x="75" y="54" width="3" height="3"/><rect class="cls-1" x="84" y="54" width="3" height="3"/><rect class="cls-1" x="87" y="54" width="3" height="3"/><rect class="cls-1" x="90" y="54" width="3" height="3"/><rect class="cls-1" x="105" y="54" width="3" height="3"/><rect class="cls-1" x="114" y="54" width="3" height="3"/><rect class="cls-1" x="120" y="54" width="3" height="3"/><rect class="cls-1" x="12" y="57" width="3" height="3"/><rect class="cls-1" x="15" y="57" width="3" height="3"/><rect class="cls-1" x="21" y="57" width="3" height="3"/><rect class="cls-1" x="24" y="57" width="3" height="3"/><rect class="cls-1" x="36" y="57" width="3" height="3"/><rect class="cls-1" x="39" y="57" width="3" height="3"/><rect class="cls-1" x="42" y="57" width="3" height="3"/><rect class="cls-1" x="45" y="57" width="3" height="3"/><rect class="cls-1" x="54" y="57" width="3" height="3"/><rect class="cls-1" x="69" y="57" width="3" height="3"/><rect class="cls-1" x="78" y="57" width="3" height="3"/><rect class="cls-1" x="81" y="57" width="3" height="3"/><rect class="cls-1" x="84" y="57" width="3" height="3"/><rect class="cls-1" x="87" y="57" width="3" height="3"/><rect class="cls-1" x="90" y="57" width="3" height="3"/><rect class="cls-1" x="96" y="57" width="3" height="3"/><rect class="cls-1" x="99" y="57" width="3" height="3"/><rect class="cls-1" x="102" y="57" width="3" height="3"/><rect class="cls-1" x="105" y="57" width="3" height="3"/><rect class="cls-1" x="117" y="57" width="3" height="3"/><rect class="cls-1" x="15" y="60" width="3" height="3"/><rect class="cls-1" x="18" y="60" width="3" height="3"/><rect class="cls-1" x="27" y="60" width="3" height="3"/><rect class="cls-1" x="30" y="60" width="3" height="3"/><rect class="cls-1" x="36" y="60" width="3" height="3"/><rect class="cls-1" x="42" y="60" width="3" height="3"/><rect class="cls-1" x="45" y="60" width="3" height="3"/><rect class="cls-1" x="48" y="60" width="3" height="3"/><rect class="cls-1" x="54" y="60" width="3" height="3"/><rect class="cls-1" x="57" y="60" width="3" height="3"/><rect class="cls-1" x="63" y="60" width="3" height="3"/><rect class="cls-1" x="66" y="60" width="3" height="3"/><rect class="cls-1" x="69" y="60" width="3" height="3"/><rect class="cls-1" x="72" y="60" width="3" height="3"/><rect class="cls-1" x="78" y="60" width="3" height="3"/><rect class="cls-1" x="84" y="60" width="3" height="3"/><rect class="cls-1" x="93" y="60" width="3" height="3"/><rect class="cls-1" x="99" y="60" width="3" height="3"/><rect class="cls-1" x="102" y="60" width="3" height="3"/><rect class="cls-1" x="105" y="60" width="3" height="3"/><rect class="cls-1" x="111" y="60" width="3" height="3"/><rect class="cls-1" x="114" y="60" width="3" height="3"/><rect class="cls-1" x="117" y="60" width="3" height="3"/><rect class="cls-1" x="120" y="60" width="3" height="3"/><rect class="cls-1" x="12" y="63" width="3" height="3"/><rect class="cls-1" x="15" y="63" width="3" height="3"/><rect class="cls-1" x="18" y="63" width="3" height="3"/><rect class="cls-1" x="24" y="63" width="3" height="3"/><rect class="cls-1" x="27" y="63" width="3" height="3"/><rect class="cls-1" x="33" y="63" width="3" height="3"/><rect class="cls-1" x="36" y="63" width="3" height="3"/><rect class="cls-1" x="39" y="63" width="3" height="3"/><rect class="cls-1" x="42" y="63" width="3" height="3"/><rect class="cls-1" x="54" y="63" width="3" height="3"/><rect class="cls-1" x="66" y="63" width="3" height="3"/><rect class="cls-1" x="72" y="63" width="3" height="3"/><rect class="cls-1" x="84" y="63" width="3" height="3"/><rect class="cls-1" x="87" y="63" width="3" height="3"/><rect class="cls-1" x="90" y="63" width="3" height="3"/><rect class="cls-1" x="96" y="63" width="3" height="3"/><rect class="cls-1" x="102" y="63" width="3" height="3"/><rect class="cls-1" x="105" y="63" width="3" height="3"/><rect class="cls-1" x="108" y="63" width="3" height="3"/><rect class="cls-1" x="111" y="63" width="3" height="3"/><rect class="cls-1" x="114" y="63" width="3" height="3"/><rect class="cls-1" x="120" y="63" width="3" height="3"/><rect class="cls-1" x="18" y="66" width="3" height="3"/><rect class="cls-1" x="21" y="66" width="3" height="3"/><rect class="cls-1" x="24" y="66" width="3" height="3"/><rect class="cls-1" x="30" y="66" width="3" height="3"/><rect class="cls-1" x="33" y="66" width="3" height="3"/><rect class="cls-1" x="36" y="66" width="3" height="3"/><rect class="cls-1" x="39" y="66" width="3" height="3"/><rect class="cls-1" x="45" y="66" width="3" height="3"/><rect class="cls-1" x="48" y="66" width="3" height="3"/><rect class="cls-1" x="51" y="66" width="3" height="3"/><rect class="cls-1" x="54" y="66" width="3" height="3"/><rect class="cls-1" x="66" y="66" width="3" height="3"/><rect class="cls-1" x="69" y="66" width="3" height="3"/><rect class="cls-1" x="75" y="66" width="3" height="3"/><rect class="cls-1" x="81" y="66" width="3" height="3"/><rect class="cls-1" x="84" y="66" width="3" height="3"/><rect class="cls-1" x="87" y="66" width="3" height="3"/><rect class="cls-1" x="90" y="66" width="3" height="3"/><rect class="cls-1" x="102" y="66" width="3" height="3"/><rect class="cls-1" x="114" y="66" width="3" height="3"/><rect class="cls-1" x="117" y="66" width="3" height="3"/><rect class="cls-1" x="120" y="66" width="3" height="3"/><rect class="cls-1" x="12" y="69" width="3" height="3"/><rect class="cls-1" x="15" y="69" width="3" height="3"/><rect class="cls-1" x="21" y="69" width="3" height="3"/><rect class="cls-1" x="33" y="69" width="3" height="3"/><rect class="cls-1" x="36" y="69" width="3" height="3"/><rect class="cls-1" x="42" y="69" width="3" height="3"/><rect class="cls-1" x="48" y="69" width="3" height="3"/><rect class="cls-1" x="51" y="69" width="3" height="3"/><rect class="cls-1" x="69" y="69" width="3" height="3"/><rect class="cls-1" x="72" y="69" width="3" height="3"/><rect class="cls-1" x="75" y="69" width="3" height="3"/><rect class="cls-1" x="78" y="69" width="3" height="3"/><rect class="cls-1" x="81" y="69" width="3" height="3"/><rect class="cls-1" x="84" y="69" width="3" height="3"/><rect class="cls-1" x="90" y="69" width="3" height="3"/><rect class="cls-1" x="99" y="69" width="3" height="3"/><rect class="cls-1" x="102" y="69" width="3" height="3"/><rect class="cls-1" x="114" y="69" width="3" height="3"/><rect class="cls-1" x="117" y="69" width="3" height="3"/><rect class="cls-1" x="15" y="72" width="3" height="3"/><rect class="cls-1" x="18" y="72" width="3" height="3"/><rect class="cls-1" x="24" y="72" width="3" height="3"/><rect class="cls-1" x="27" y="72" width="3" height="3"/><rect class="cls-1" x="30" y="72" width="3" height="3"/><rect class="cls-1" x="33" y="72" width="3" height="3"/><rect class="cls-1" x="36" y="72" width="3" height="3"/><rect class="cls-1" x="66" y="72" width="3" height="3"/><rect class="cls-1" x="69" y="72" width="3" height="3"/><rect class="cls-1" x="78" y="72" width="3" height="3"/><rect class="cls-1" x="84" y="72" width="3" height="3"/><rect class="cls-1" x="87" y="72" width="3" height="3"/><rect class="cls-1" x="90" y="72" width="3" height="3"/><rect class="cls-1" x="93" y="72" width="3" height="3"/><rect class="cls-1" x="96" y="72" width="3" height="3"/><rect class="cls-1" x="102" y="72" width="3" height="3"/><rect class="cls-1" x="105" y="72" width="3" height="3"/><rect class="cls-1" x="108" y="72" width="3" height="3"/><rect class="cls-1" x="111" y="72" width="3" height="3"/><rect class="cls-1" x="117" y="72" width="3" height="3"/><rect class="cls-1" x="12" y="75" width="3" height="3"/><rect class="cls-1" x="15" y="75" width="3" height="3"/><rect class="cls-1" x="18" y="75" width="3" height="3"/><rect class="cls-1" x="21" y="75" width="3" height="3"/><rect class="cls-1" x="24" y="75" width="3" height="3"/><rect class="cls-1" x="27" y="75" width="3" height="3"/><rect class="cls-1" x="33" y="75" width="3" height="3"/><rect class="cls-1" x="39" y="75" width="3" height="3"/><rect class="cls-1" x="42" y="75" width="3" height="3"/><rect class="cls-1" x="45" y="75" width="3" height="3"/><rect class="cls-1" x="48" y="75" width="3" height="3"/><rect class="cls-1" x="54" y="75" width="3" height="3"/><rect class="cls-1" x="57" y="75" width="3" height="3"/><rect class="cls-1" x="63" y="75" width="3" height="3"/><rect class="cls-1" x="69" y="75" width="3" height="3"/><rect class="cls-1" x="72" y="75" width="3" height="3"/><rect class="cls-1" x="87" y="75" width="3" height="3"/><rect class="cls-1" x="99" y="75" width="3" height="3"/><rect class="cls-1" x="102" y="75" width="3" height="3"/><rect class="cls-1" x="111" y="75" width="3" height="3"/><rect class="cls-1" x="114" y="75" width="3" height="3"/><rect class="cls-1" x="117" y="75" width="3" height="3"/><rect class="cls-1" x="120" y="75" width="3" height="3"/><rect class="cls-1" x="12" y="78" width="3" height="3"/><rect class="cls-1" x="15" y="78" width="3" height="3"/><rect class="cls-1" x="18" y="78" width="3" height="3"/><rect class="cls-1" x="30" y="78" width="3" height="3"/><rect class="cls-1" x="36" y="78" width="3" height="3"/><rect class="cls-1" x="42" y="78" width="3" height="3"/><rect class="cls-1" x="45" y="78" width="3" height="3"/><rect class="cls-1" x="54" y="78" width="3" height="3"/><rect class="cls-1" x="57" y="78" width="3" height="3"/><rect class="cls-1" x="66" y="78" width="3" height="3"/><rect class="cls-1" x="75" y="78" width="3" height="3"/><rect class="cls-1" x="87" y="78" width="3" height="3"/><rect class="cls-1" x="90" y="78" width="3" height="3"/><rect class="cls-1" x="105" y="78" width="3" height="3"/><rect class="cls-1" x="108" y="78" width="3" height="3"/><rect class="cls-1" x="111" y="78" width="3" height="3"/><rect class="cls-1" x="117" y="78" width="3" height="3"/><rect class="cls-1" x="120" y="78" width="3" height="3"/><rect class="cls-1" x="21" y="81" width="3" height="3"/><rect class="cls-1" x="24" y="81" width="3" height="3"/><rect class="cls-1" x="27" y="81" width="3" height="3"/><rect class="cls-1" x="42" y="81" width="3" height="3"/><rect class="cls-1" x="51" y="81" width="3" height="3"/><rect class="cls-1" x="63" y="81" width="3" height="3"/><rect class="cls-1" x="81" y="81" width="3" height="3"/><rect class="cls-1" x="84" y="81" width="3" height="3"/><rect class="cls-1" x="87" y="81" width="3" height="3"/><rect class="cls-1" x="99" y="81" width="3" height="3"/><rect class="cls-1" x="108" y="81" width="3" height="3"/><rect class="cls-1" x="117" y="81" width="3" height="3"/><rect class="cls-1" x="15" y="84" width="3" height="3"/><rect class="cls-1" x="18" y="84" width="3" height="3"/><rect class="cls-1" x="24" y="84" width="3" height="3"/><rect class="cls-1" x="27" y="84" width="3" height="3"/><rect class="cls-1" x="30" y="84" width="3" height="3"/><rect class="cls-1" x="33" y="84" width="3" height="3"/><rect class="cls-1" x="45" y="84" width="3" height="3"/><rect class="cls-1" x="51" y="84" width="3" height="3"/><rect class="cls-1" x="57" y="84" width="3" height="3"/><rect class="cls-1" x="60" y="84" width="3" height="3"/><rect class="cls-1" x="69" y="84" width="3" height="3"/><rect class="cls-1" x="72" y="84" width="3" height="3"/><rect class="cls-1" x="75" y="84" width="3" height="3"/><rect class="cls-1" x="90" y="84" width="3" height="3"/><rect class="cls-1" x="93" y="84" width="3" height="3"/><rect class="cls-1" x="96" y="84" width="3" height="3"/><rect class="cls-1" x="99" y="84" width="3" height="3"/><rect class="cls-1" x="102" y="84" width="3" height="3"/><rect class="cls-1" x="105" y="84" width="3" height="3"/><rect class="cls-1" x="108" y="84" width="3" height="3"/><rect class="cls-1" x="117" y="84" width="3" height="3"/><rect class="cls-1" x="120" y="84" width="3" height="3"/><rect class="cls-1" x="15" y="87" width="3" height="3"/><rect class="cls-1" x="18" y="87" width="3" height="3"/><rect class="cls-1" x="27" y="87" width="3" height="3"/><rect class="cls-1" x="45" y="87" width="3" height="3"/><rect class="cls-1" x="48" y="87" width="3" height="3"/><rect class="cls-1" x="54" y="87" width="3" height="3"/><rect class="cls-1" x="60" y="87" width="3" height="3"/><rect class="cls-1" x="63" y="87" width="3" height="3"/><rect class="cls-1" x="69" y="87" width="3" height="3"/><rect class="cls-1" x="72" y="87" width="3" height="3"/><rect class="cls-1" x="78" y="87" width="3" height="3"/><rect class="cls-1" x="81" y="87" width="3" height="3"/><rect class="cls-1" x="90" y="87" width="3" height="3"/><rect class="cls-1" x="102" y="87" width="3" height="3"/><rect class="cls-1" x="105" y="87" width="3" height="3"/><rect class="cls-1" x="120" y="87" width="3" height="3"/><rect class="cls-1" x="12" y="90" width="3" height="3"/><rect class="cls-1" x="24" y="90" width="3" height="3"/><rect class="cls-1" x="30" y="90" width="3" height="3"/><rect class="cls-1" x="36" y="90" width="3" height="3"/><rect class="cls-1" x="42" y="90" width="3" height="3"/><rect class="cls-1" x="45" y="90" width="3" height="3"/><rect class="cls-1" x="48" y="90" width="3" height="3"/><rect class="cls-1" x="54" y="90" width="3" height="3"/><rect class="cls-1" x="57" y="90" width="3" height="3"/><rect class="cls-1" x="72" y="90" width="3" height="3"/><rect class="cls-1" x="75" y="90" width="3" height="3"/><rect class="cls-1" x="78" y="90" width="3" height="3"/><rect class="cls-1" x="81" y="90" width="3" height="3"/><rect class="cls-1" x="87" y="90" width="3" height="3"/><rect class="cls-1" x="90" y="90" width="3" height="3"/><rect class="cls-1" x="96" y="90" width="3" height="3"/><rect class="cls-1" x="99" y="90" width="3" height="3"/><rect class="cls-1" x="102" y="90" width="3" height="3"/><rect class="cls-1" x="105" y="90" width="3" height="3"/><rect class="cls-1" x="120" y="90" width="3" height="3"/><rect class="cls-1" x="15" y="93" width="3" height="3"/><rect class="cls-1" x="24" y="93" width="3" height="3"/><rect class="cls-1" x="27" y="93" width="3" height="3"/><rect class="cls-1" x="33" y="93" width="3" height="3"/><rect class="cls-1" x="36" y="93" width="3" height="3"/><rect class="cls-1" x="39" y="93" width="3" height="3"/><rect class="cls-1" x="48" y="93" width="3" height="3"/><rect class="cls-1" x="66" y="93" width="3" height="3"/><rect class="cls-1" x="69" y="93" width="3" height="3"/><rect class="cls-1" x="75" y="93" width="3" height="3"/><rect class="cls-1" x="78" y="93" width="3" height="3"/><rect class="cls-1" x="81" y="93" width="3" height="3"/><rect class="cls-1" x="87" y="93" width="3" height="3"/><rect class="cls-1" x="90" y="93" width="3" height="3"/><rect class="cls-1" x="102" y="93" width="3" height="3"/><rect class="cls-1" x="108" y="93" width="3" height="3"/><rect class="cls-1" x="111" y="93" width="3" height="3"/><rect class="cls-1" x="117" y="93" width="3" height="3"/><rect class="cls-1" x="12" y="96" width="3" height="3"/><rect class="cls-1" x="15" y="96" width="3" height="3"/><rect class="cls-1" x="18" y="96" width="3" height="3"/><rect class="cls-1" x="27" y="96" width="3" height="3"/><rect class="cls-1" x="30" y="96" width="3" height="3"/><rect class="cls-1" x="33" y="96" width="3" height="3"/><rect class="cls-1" x="36" y="96" width="3" height="3"/><rect class="cls-1" x="39" y="96" width="3" height="3"/><rect class="cls-1" x="42" y="96" width="3" height="3"/><rect class="cls-1" x="48" y="96" width="3" height="3"/><rect class="cls-1" x="57" y="96" width="3" height="3"/><rect class="cls-1" x="72" y="96" width="3" height="3"/><rect class="cls-1" x="84" y="96" width="3" height="3"/><rect class="cls-1" x="93" y="96" width="3" height="3"/><rect class="cls-1" x="96" y="96" width="3" height="3"/><rect class="cls-1" x="99" y="96" width="3" height="3"/><rect class="cls-1" x="102" y="96" width="3" height="3"/><rect class="cls-1" x="105" y="96" width="3" height="3"/><rect class="cls-1" x="108" y="96" width="3" height="3"/><rect class="cls-1" x="114" y="96" width="3" height="3"/><rect class="cls-1" x="36" y="99" width="3" height="3"/><rect class="cls-1" x="39" y="99" width="3" height="3"/><rect class="cls-1" x="42" y="99" width="3" height="3"/><rect class="cls-1" x="45" y="99" width="3" height="3"/><rect class="cls-1" x="54" y="99" width="3" height="3"/><rect class="cls-1" x="57" y="99" width="3" height="3"/><rect class="cls-1" x="60" y="99" width="3" height="3"/><rect class="cls-1" x="66" y="99" width="3" height="3"/><rect class="cls-1" x="75" y="99" width="3" height="3"/><rect class="cls-1" x="81" y="99" width="3" height="3"/><rect class="cls-1" x="84" y="99" width="3" height="3"/><rect class="cls-1" x="87" y="99" width="3" height="3"/><rect class="cls-1" x="90" y="99" width="3" height="3"/><rect class="cls-1" x="93" y="99" width="3" height="3"/><rect class="cls-1" x="96" y="99" width="3" height="3"/><rect class="cls-1" x="108" y="99" width="3" height="3"/><rect class="cls-1" x="117" y="99" width="3" height="3"/><rect class="cls-1" x="120" y="99" width="3" height="3"/><rect class="cls-1" x="12" y="102" width="3" height="3"/><rect class="cls-1" x="15" y="102" width="3" height="3"/><rect class="cls-1" x="18" y="102" width="3" height="3"/><rect class="cls-1" x="21" y="102" width="3" height="3"/><rect class="cls-1" x="24" y="102" width="3" height="3"/><rect class="cls-1" x="27" y="102" width="3" height="3"/><rect class="cls-1" x="30" y="102" width="3" height="3"/><rect class="cls-1" x="39" y="102" width="3" height="3"/><rect class="cls-1" x="48" y="102" width="3" height="3"/><rect class="cls-1" x="51" y="102" width="3" height="3"/><rect class="cls-1" x="57" y="102" width="3" height="3"/><rect class="cls-1" x="66" y="102" width="3" height="3"/><rect class="cls-1" x="72" y="102" width="3" height="3"/><rect class="cls-1" x="75" y="102" width="3" height="3"/><rect class="cls-1" x="78" y="102" width="3" height="3"/><rect class="cls-1" x="84" y="102" width="3" height="3"/><rect class="cls-1" x="87" y="102" width="3" height="3"/><rect class="cls-1" x="93" y="102" width="3" height="3"/><rect class="cls-1" x="96" y="102" width="3" height="3"/><rect class="cls-1" x="102" y="102" width="3" height="3"/><rect class="cls-1" x="108" y="102" width="3" height="3"/><rect class="cls-1" x="114" y="102" width="3" height="3"/><rect class="cls-1" x="117" y="102" width="3" height="3"/><rect class="cls-1" x="120" y="102" width="3" height="3"/><rect class="cls-1" x="12" y="105" width="3" height="3"/><rect class="cls-1" x="30" y="105" width="3" height="3"/><rect class="cls-1" x="39" y="105" width="3" height="3"/><rect class="cls-1" x="42" y="105" width="3" height="3"/><rect class="cls-1" x="45" y="105" width="3" height="3"/><rect class="cls-1" x="54" y="105" width="3" height="3"/><rect class="cls-1" x="57" y="105" width="3" height="3"/><rect class="cls-1" x="69" y="105" width="3" height="3"/><rect class="cls-1" x="75" y="105" width="3" height="3"/><rect class="cls-1" x="78" y="105" width="3" height="3"/><rect class="cls-1" x="96" y="105" width="3" height="3"/><rect class="cls-1" x="108" y="105" width="3" height="3"/><rect class="cls-1" x="114" y="105" width="3" height="3"/><rect class="cls-1" x="12" y="108" width="3" height="3"/><rect class="cls-1" x="18" y="108" width="3" height="3"/><rect class="cls-1" x="21" y="108" width="3" height="3"/><rect class="cls-1" x="24" y="108" width="3" height="3"/><rect class="cls-1" x="30" y="108" width="3" height="3"/><rect class="cls-1" x="45" y="108" width="3" height="3"/><rect class="cls-1" x="48" y="108" width="3" height="3"/><rect class="cls-1" x="51" y="108" width="3" height="3"/><rect class="cls-1" x="57" y="108" width="3" height="3"/><rect class="cls-1" x="63" y="108" width="3" height="3"/><rect class="cls-1" x="69" y="108" width="3" height="3"/><rect class="cls-1" x="72" y="108" width="3" height="3"/><rect class="cls-1" x="75" y="108" width="3" height="3"/><rect class="cls-1" x="78" y="108" width="3" height="3"/><rect class="cls-1" x="81" y="108" width="3" height="3"/><rect class="cls-1" x="84" y="108" width="3" height="3"/><rect class="cls-1" x="87" y="108" width="3" height="3"/><rect class="cls-1" x="90" y="108" width="3" height="3"/><rect class="cls-1" x="96" y="108" width="3" height="3"/><rect class="cls-1" x="99" y="108" width="3" height="3"/><rect class="cls-1" x="102" y="108" width="3" height="3"/><rect class="cls-1" x="105" y="108" width="3" height="3"/><rect class="cls-1" x="108" y="108" width="3" height="3"/><rect class="cls-1" x="111" y="108" width="3" height="3"/><rect class="cls-1" x="117" y="108" width="3" height="3"/><rect class="cls-1" x="12" y="111" width="3" height="3"/><rect class="cls-1" x="18" y="111" width="3" height="3"/><rect class="cls-1" x="21" y="111" width="3" height="3"/><rect class="cls-1" x="24" y="111" width="3" height="3"/><rect class="cls-1" x="30" y="111" width="3" height="3"/><rect class="cls-1" x="36" y="111" width="3" height="3"/><rect class="cls-1" x="45" y="111" width="3" height="3"/><rect class="cls-1" x="51" y="111" width="3" height="3"/><rect class="cls-1" x="57" y="111" width="3" height="3"/><rect class="cls-1" x="81" y="111" width="3" height="3"/><rect class="cls-1" x="84" y="111" width="3" height="3"/><rect class="cls-1" x="87" y="111" width="3" height="3"/><rect class="cls-1" x="93" y="111" width="3" height="3"/><rect class="cls-1" x="99" y="111" width="3" height="3"/><rect class="cls-1" x="105" y="111" width="3" height="3"/><rect class="cls-1" x="108" y="111" width="3" height="3"/><rect class="cls-1" x="117" y="111" width="3" height="3"/><rect class="cls-1" x="120" y="111" width="3" height="3"/><rect class="cls-1" x="12" y="114" width="3" height="3"/><rect class="cls-1" x="18" y="114" width="3" height="3"/><rect class="cls-1" x="21" y="114" width="3" height="3"/><rect class="cls-1" x="24" y="114" width="3" height="3"/><rect class="cls-1" x="30" y="114" width="3" height="3"/><rect class="cls-1" x="39" y="114" width="3" height="3"/><rect class="cls-1" x="42" y="114" width="3" height="3"/><rect class="cls-1" x="54" y="114" width="3" height="3"/><rect class="cls-1" x="60" y="114" width="3" height="3"/><rect class="cls-1" x="63" y="114" width="3" height="3"/><rect class="cls-1" x="66" y="114" width="3" height="3"/><rect class="cls-1" x="75" y="114" width="3" height="3"/><rect class="cls-1" x="81" y="114" width="3" height="3"/><rect class="cls-1" x="84" y="114" width="3" height="3"/><rect class="cls-1" x="90" y="114" width="3" height="3"/><rect class="cls-1" x="93" y="114" width="3" height="3"/><rect class="cls-1" x="99" y="114" width="3" height="3"/><rect class="cls-1" x="108" y="114" width="3" height="3"/><rect class="cls-1" x="111" y="114" width="3" height="3"/><rect class="cls-1" x="120" y="114" width="3" height="3"/><rect class="cls-1" x="12" y="117" width="3" height="3"/><rect class="cls-1" x="30" y="117" width="3" height="3"/><rect class="cls-1" x="39" y="117" width="3" height="3"/><rect class="cls-1" x="42" y="117" width="3" height="3"/><rect class="cls-1" x="45" y="117" width="3" height="3"/><rect class="cls-1" x="51" y="117" width="3" height="3"/><rect class="cls-1" x="54" y="117" width="3" height="3"/><rect class="cls-1" x="63" y="117" width="3" height="3"/><rect class="cls-1" x="81" y="117" width="3" height="3"/><rect class="cls-1" x="84" y="117" width="3" height="3"/><rect class="cls-1" x="87" y="117" width="3" height="3"/><rect class="cls-1" x="93" y="117" width="3" height="3"/><rect class="cls-1" x="96" y="117" width="3" height="3"/><rect class="cls-1" x="12" y="120" width="3" height="3"/><rect class="cls-1" x="15" y="120" width="3" height="3"/><rect class="cls-1" x="18" y="120" width="3" height="3"/><rect class="cls-1" x="21" y="120" width="3" height="3"/><rect class="cls-1" x="24" y="120" width="3" height="3"/><rect class="cls-1" x="27" y="120" width="3" height="3"/><rect class="cls-1" x="30" y="120" width="3" height="3"/><rect class="cls-1" x="60" y="120" width="3" height="3"/><rect class="cls-1" x="63" y="120" width="3" height="3"/><rect class="cls-1" x="66" y="120" width="3" height="3"/><rect class="cls-1" x="75" y="120" width="3" height="3"/><rect class="cls-1" x="78" y="120" width="3" height="3"/><rect class="cls-1" x="81" y="120" width="3" height="3"/><rect class="cls-1" x="87" y="120" width="3" height="3"/><rect class="cls-1" x="93" y="120" width="3" height="3"/><rect class="cls-1" x="96" y="120" width="3" height="3"/><rect class="cls-1" x="99" y="120" width="3" height="3"/><rect class="cls-1" x="108" y="120" width="3" height="3"/><rect class="cls-1" x="117" y="120" width="3" height="3"/><rect class="cls-1" x="120" y="120" width="3" height="3"/></g></svg>